<svg width="40" height="40" viewBox="0 0 40 40" fill="none" xmlns="http://www.w3.org/2000/svg">
<rect width="40" height="40" rx="20" fill="#E4E6E7"/>
<g clip-path="url(#clip0_235_14061)">
<path d="M15.7956 13C16.3389 13 16.8823 13.0519 17.3997 13.1555C17.8396 13.2592 18.2536 13.4406 18.6417 13.6997C18.978 13.9588 19.2626 14.2957 19.4437 14.6844C19.6507 15.1768 19.7542 15.695 19.7283 16.2133C19.7542 16.7834 19.599 17.3535 19.3144 17.8458C19.0039 18.3123 18.564 18.6751 18.0724 18.9083C18.771 19.0897 19.3661 19.5302 19.7542 20.1003C20.1423 20.7222 20.3234 21.4478 20.3234 22.1734C20.3234 22.7694 20.2199 23.3395 19.9612 23.8578C19.7283 24.3242 19.392 24.7129 19.0039 25.0498C18.5899 25.3607 18.0983 25.594 17.6067 25.7235C17.0893 25.879 16.5459 25.9308 16.0026 25.9308H10V12.9741H15.7956V13ZM15.4334 18.2345C15.8473 18.2605 16.2872 18.1309 16.6235 17.8718C16.9599 17.5867 17.141 17.1462 17.0893 16.6797C17.0893 16.4206 17.0375 16.1615 16.934 15.9283C16.8305 15.7469 16.7012 15.5914 16.5201 15.4877C16.3389 15.3841 16.132 15.2804 15.925 15.2545C15.6921 15.2027 15.4592 15.2027 15.2264 15.2027H12.6908V18.2345H15.4334ZM15.5886 23.78C15.8473 23.78 16.1061 23.7541 16.3389 23.7023C16.5718 23.6505 16.7788 23.5468 16.9858 23.4172C17.1669 23.2877 17.3221 23.1063 17.4256 22.899C17.555 22.6398 17.6067 22.3548 17.5809 22.0697C17.6326 21.5256 17.4256 21.0073 17.0375 20.6445C16.6235 20.3335 16.132 20.204 15.6145 20.2299H12.6908V23.8059H15.5886V23.78Z" fill="#2F3941"/>
<path d="M24.1526 23.7281C24.5925 24.1168 25.1617 24.3242 25.7309 24.2982C26.1966 24.2982 26.6365 24.1687 26.9987 23.9095C27.3092 23.7022 27.5162 23.4172 27.6455 23.0803H29.793C29.5602 24.0391 28.9909 24.8943 28.2147 25.4903C27.4644 26.0085 26.5589 26.2418 25.6274 26.2158C24.9806 26.2158 24.3338 26.1122 23.7128 25.8531C23.1695 25.6198 22.6779 25.283 22.2898 24.8424C21.9017 24.376 21.5912 23.8577 21.3842 23.2876C21.1514 22.6398 21.0479 21.966 21.0737 21.2923C21.0737 20.6185 21.1772 19.9707 21.4101 19.3229C22.031 17.5089 23.7387 16.291 25.6533 16.3169C26.3519 16.291 27.0246 16.4724 27.6455 16.7833C28.1889 17.0943 28.6805 17.5089 29.0427 18.0272C29.4049 18.5714 29.6895 19.1674 29.8189 19.8152C29.9741 20.489 30.0259 21.2145 30 21.9142H23.5834C23.5058 22.562 23.7128 23.2099 24.1526 23.7281ZM26.947 18.7787C26.5847 18.4159 26.0931 18.2345 25.5757 18.2604C25.2393 18.2604 24.903 18.3122 24.6184 18.4677C24.3855 18.5973 24.1785 18.7787 23.9974 18.986C23.8422 19.1933 23.7387 19.4006 23.6611 19.6597C23.6093 19.867 23.5576 20.0744 23.5576 20.2817H27.542C27.4903 19.7375 27.2833 19.2192 26.947 18.7787Z" fill="#2F3941"/>
<path d="M28.0077 13.8555H23.0401V15.1252H28.0077V13.8555Z" fill="#2F3941"/>
</g>
<defs>
<clipPath id="clip0_235_14061">
<rect width="20" height="13.2159" fill="white" transform="translate(10 13)"/>
</clipPath>
</defs>
</svg>
