<svg width="49" height="38" viewBox="0 0 49 38" fill="none" xmlns="http://www.w3.org/2000/svg">
<path d="M13.9778 38C9.42866 38 5.67851 34.7769 3.61995 31.6197C-0.876576 24.7259 -0.473782 14.8991 4.57613 8.25215C8.63403 2.91205 15.4092 -0.245136 22.2983 0.0149106C30.5311 0.324769 34.5115 4.70307 35.5656 7.24493C36.4633 9.40661 36.2236 11.9075 34.9516 13.6179C34.013 14.8815 32.5063 15.7781 30.7117 16.1429C28.8614 16.5187 26.691 16.1502 24.5901 15.7935C19.9261 15.0024 17.6015 14.9145 16.4406 17.5413C15.1979 20.3557 17.4641 22.4199 20.8048 25.0292C21.2332 25.3639 21.6455 25.6885 22.0234 25.9983C22.6711 26.5331 23.3161 27.0702 23.9585 27.6099L24.37 27.9549C24.9432 27.2773 25.4965 26.6012 26.0295 25.9514C27.0609 24.6922 28.0361 23.5026 28.9535 22.5254C29.311 22.146 29.6729 21.7504 30.0406 21.3475C32.8821 18.2379 36.4158 14.3702 41.408 14.3702H41.4562C43.8035 14.3819 45.9535 15.4089 47.2065 17.1186C49.4924 20.2363 48.746 24.271 44.9878 29.1115C44.7034 29.4778 44.3942 29.8961 44.0616 30.3458C41.8634 33.3199 38.8523 37.3913 35.1431 37.7531C33.5349 37.907 31.8265 37.3422 29.9302 36.0156C28.868 35.2721 28.0756 34.6025 27.3095 33.9543C26.8869 33.5975 26.4885 33.2598 26.0594 32.9229C25.5938 32.5566 25.131 32.1903 24.6705 31.8131C21.8151 34.9095 18.5299 37.6359 14.82 37.9619C14.5373 37.9873 14.2566 38 13.9778 38ZM21.5388 2.77946C15.8536 2.77946 10.1202 5.54255 6.78162 9.9355C2.41814 15.6778 2.06433 24.1575 5.94021 30.0997C7.68663 32.7771 10.8753 35.5204 14.5802 35.1959C17.3581 34.952 20.0731 32.6907 22.5337 30.0397C22.4145 29.9393 22.2961 29.8397 22.177 29.7408C21.5405 29.206 20.9013 28.673 20.2595 28.1417C19.8991 27.8487 19.5065 27.5373 19.0979 27.2187C16.1475 24.9134 11.6868 21.4317 13.9032 16.4154C16.0649 11.528 21.0468 12.3748 25.0513 13.0531C26.9856 13.382 28.8139 13.6934 30.159 13.4194C31.2848 13.1901 32.1971 12.6715 32.7278 11.9543C33.426 11.0152 33.5319 9.58462 33.0056 8.31002C31.5896 4.89939 26.4944 2.95087 22.193 2.78898C21.9759 2.78386 21.7566 2.77946 21.5388 2.77946ZM26.5054 29.7261C26.925 30.0675 27.346 30.4059 27.7678 30.7363C28.2371 31.1025 28.675 31.4747 29.0983 31.8351C29.8169 32.4423 30.5603 33.0708 31.5187 33.7396C32.8499 34.6714 33.9545 35.0853 34.8748 34.9893C37.3603 34.7476 40.0505 31.1069 41.8327 28.694C42.1799 28.2252 42.5023 27.7886 42.7984 27.407C45.7437 23.6139 46.4535 20.7871 44.9717 18.7632C44.2466 17.7743 42.8942 17.1553 41.4423 17.1516H41.408C37.6352 17.1516 34.8142 20.2392 32.0845 23.2264C31.7073 23.6388 31.3367 24.0447 30.9704 24.4336C30.1166 25.342 29.1714 26.4957 28.1699 27.7168C27.6348 28.368 27.0799 29.0456 26.5054 29.7261Z" fill="url(#paint0_linear_1437_3959)"/>
<defs>
<linearGradient id="paint0_linear_1437_3959" x1="-10.0933" y1="1.55395" x2="31.1691" y2="26.1267" gradientUnits="userSpaceOnUse">
<stop offset="0.02" stop-color="#04CB00"/>
<stop offset="1" stop-color="#008BE9"/>
</linearGradient>
</defs>
</svg>
