<svg width="32" height="32" viewBox="0 0 32 32" fill="none" xmlns="http://www.w3.org/2000/svg">
<rect x="0.5" y="0.5" width="31" height="31" rx="15.5" fill="#E3EDFD"/>
<rect x="0.5" y="0.5" width="31" height="31" rx="15.5" stroke="#0E4BA3"/>
<path d="M21.9998 21.3333H23.3332V22.6666H8.6665V21.3333H9.99984V9.99998C9.99984 9.82317 10.0701 9.6536 10.1951 9.52858C10.3201 9.40355 10.4897 9.33331 10.6665 9.33331H21.3332C21.51 9.33331 21.6796 9.40355 21.8046 9.52858C21.9296 9.6536 21.9998 9.82317 21.9998 9.99998V21.3333ZM20.6665 21.3333V10.6666H11.3332V21.3333H20.6665ZM13.3332 15.3333H15.3332V16.6666H13.3332V15.3333ZM13.3332 12.6666H15.3332V14H13.3332V12.6666ZM13.3332 18H15.3332V19.3333H13.3332V18ZM16.6665 18H18.6665V19.3333H16.6665V18ZM16.6665 15.3333H18.6665V16.6666H16.6665V15.3333ZM16.6665 12.6666H18.6665V14H16.6665V12.6666Z" fill="#0E4BA3"/>
</svg>
