<svg width="126" height="34" viewBox="0 0 126 34" fill="none" xmlns="http://www.w3.org/2000/svg">
<g clip-path="url(#clip0_953_23755)">
<rect x="32.0365" y="1.01828" width="32" height="32" rx="16" transform="rotate(90.0654 32.0365 1.01828)" fill="url(#paint0_linear_953_23755)"/>
<rect x="31.5359" y="-4.46404" width="31" height="31" rx="15.5" transform="rotate(90.0654 31.5359 -4.46404)" stroke="#D7D8E8"/>
<rect x="36.5358" y="3.53596" width="31" height="31" rx="15.5" transform="rotate(90.0654 36.5358 3.53596)" stroke="#D7D8E8"/>
</g>
<path d="M42.1965 25.5V9.636H47.6685C52.7805 9.636 55.2525 12.828 55.2525 17.292C55.2525 21.54 52.9485 25.5 47.6925 25.5H42.1965ZM44.7885 23.292H47.5965C50.5245 23.292 52.4445 21.612 52.4445 17.388C52.4445 13.332 50.5245 11.844 47.4525 11.844H44.7885V23.292ZM66.9079 20.436H59.5159C59.5879 22.356 60.1399 23.94 62.3479 23.94C63.7159 23.94 64.4839 23.22 64.7959 22.308L66.9079 22.74C66.3319 24.708 64.8439 25.836 62.2999 25.836C58.8919 25.836 56.9719 23.988 56.9719 20.004C56.9719 17.052 58.2439 14.1 62.2519 14.1C65.2759 14.1 66.9079 15.78 66.9079 19.212V20.436ZM62.2039 15.996C60.7639 15.996 59.8519 16.74 59.5879 18.66H64.4119V18.324C64.4119 17.028 63.7639 15.996 62.2039 15.996ZM69.1862 25.5V8.268H71.5622V15.66C72.1622 14.892 73.1942 14.1 74.7542 14.1C78.2102 14.1 79.4342 16.86 79.4342 19.668C79.4342 23.076 77.8982 25.836 74.5382 25.836C72.7862 25.836 71.8502 25.044 71.2502 24.06L71.1542 25.5H69.1862ZM74.3462 23.94C76.1222 23.94 76.9142 22.212 76.9142 19.788C76.9142 17.292 76.0022 15.996 74.4182 15.996C72.5702 15.996 71.5862 17.748 71.5862 20.004C71.5862 22.26 72.5942 23.94 74.3462 23.94ZM86.3706 25.836C82.5306 25.836 81.0666 23.364 81.0666 19.86C81.0666 16.596 82.6026 14.1 86.3706 14.1C90.0906 14.1 91.6746 16.404 91.6746 19.86C91.6746 23.244 90.1866 25.836 86.3706 25.836ZM86.3706 23.94C88.3146 23.94 89.1306 22.236 89.1306 20.004C89.1306 17.628 88.3146 15.996 86.3706 15.996C84.4266 15.996 83.6106 17.652 83.6106 20.004C83.6106 22.356 84.4266 23.94 86.3706 23.94ZM93.9371 25.5V14.436H96.1931V16.476C96.6251 15.42 97.5131 14.1 99.2651 14.1C100.561 14.1 101.137 15.06 101.137 15.06L99.8171 16.956C99.8171 16.956 99.4091 16.26 98.7371 16.26C97.3451 16.26 96.6251 18.324 96.3131 19.836V25.5H93.9371ZM111.699 25.668C109.491 25.932 108.819 24.972 108.675 24.012C108.123 24.924 106.971 25.836 105.219 25.836C103.347 25.836 101.643 24.828 101.643 22.764C101.643 20.22 104.307 18.972 108.387 18.948V18.42C108.387 16.692 107.955 15.996 106.419 15.996C105.123 15.996 104.307 16.524 104.403 18.012L102.027 17.58C101.763 15.492 103.347 14.1 106.587 14.1C109.611 14.1 110.787 15.348 110.787 18.252V22.164C110.787 23.124 110.739 23.892 112.155 23.628L111.699 25.668ZM108.387 21.708V20.628C105.579 20.652 104.187 21.252 104.187 22.596C104.187 23.436 104.739 23.94 105.723 23.94C107.019 23.94 108.291 23.004 108.387 21.708ZM120.989 25.5V18.348C120.989 16.788 120.485 16.164 119.429 16.164C117.269 16.164 116.429 18.828 116.213 19.788V25.5H113.837V8.268H116.213V16.26C116.621 15.468 117.677 14.1 119.957 14.1C121.805 14.1 123.389 15.012 123.389 17.7V25.5H120.989Z" fill="#2F3941"/>
<defs>
<linearGradient id="paint0_linear_953_23755" x1="75.6227" y1="27.3516" x2="32.5592" y2="19.2236" gradientUnits="userSpaceOnUse">
<stop offset="0.159057" stop-color="#012468" stop-opacity="0.8"/>
<stop offset="1" stop-color="#130B74" stop-opacity="0.83"/>
</linearGradient>
<clipPath id="clip0_953_23755">
<rect x="32.0365" y="1.01828" width="32" height="32" rx="16" transform="rotate(90.0654 32.0365 1.01828)" fill="white"/>
</clipPath>
</defs>
</svg>
