<svg width="41" height="40" viewBox="0 0 41 40" fill="none" xmlns="http://www.w3.org/2000/svg">
<g filter="url(#filter0_d_125_21292)">
<rect x="4.66663" width="32" height="32" rx="16" fill="#EFEBE8"/>
<g clip-path="url(#clip0_125_21292)">
<path d="M23.5573 19.5079L21.3443 24.1579C21.3025 24.2458 21.2398 24.3222 21.1618 24.3805C21.0838 24.4388 20.9928 24.4773 20.8966 24.4925C20.8005 24.5078 20.702 24.4994 20.6098 24.4681C20.5176 24.4368 20.4344 24.3836 20.3673 24.3129L16.8253 20.5739C16.7307 20.4741 16.6047 20.4099 16.4683 20.3919L11.3613 19.7239C11.2649 19.7112 11.1729 19.6752 11.0934 19.619C11.014 19.5629 10.9493 19.4882 10.9051 19.4015C10.861 19.3148 10.8385 19.2186 10.8398 19.1213C10.841 19.024 10.8659 18.9284 10.9123 18.8429L13.3743 14.3189C13.4398 14.1979 13.4617 14.0581 13.4363 13.9229L12.4933 8.85991C12.4754 8.76408 12.4812 8.66532 12.51 8.5722C12.5388 8.47907 12.5899 8.39437 12.6589 8.32544C12.7278 8.2565 12.8125 8.2054 12.9056 8.17656C12.9988 8.14771 13.0975 8.142 13.1933 8.15991L18.2563 9.10291C18.3916 9.12825 18.5314 9.10636 18.6523 9.04091L23.1763 6.57891C23.262 6.53248 23.3576 6.50759 23.455 6.50639C23.5524 6.50519 23.6486 6.52772 23.7353 6.57202C23.822 6.61632 23.8967 6.68106 23.9528 6.76067C24.0089 6.84027 24.0448 6.93233 24.0573 7.02891L24.7253 12.1349C24.7433 12.2712 24.8076 12.3973 24.9073 12.4919L28.6463 16.0339C28.717 16.1009 28.7703 16.1841 28.8016 16.2764C28.8329 16.3686 28.8412 16.467 28.826 16.5632C28.8107 16.6594 28.7723 16.7504 28.714 16.8284C28.6557 16.9064 28.5793 16.969 28.4913 17.0109L23.8413 19.2239C23.7169 19.2831 23.6166 19.3834 23.5573 19.5079ZM24.3543 21.4349L25.7683 20.0209L30.0113 24.2629L28.5963 25.6779L24.3543 21.4349Z" fill="#938273"/>
</g>
</g>
<defs>
<filter id="filter0_d_125_21292" x="0.666626" y="0" width="40" height="40" filterUnits="userSpaceOnUse" color-interpolation-filters="sRGB">
<feFlood flood-opacity="0" result="BackgroundImageFix"/>
<feColorMatrix in="SourceAlpha" type="matrix" values="0 0 0 0 0 0 0 0 0 0 0 0 0 0 0 0 0 0 127 0" result="hardAlpha"/>
<feOffset dy="4"/>
<feGaussianBlur stdDeviation="2"/>
<feComposite in2="hardAlpha" operator="out"/>
<feColorMatrix type="matrix" values="0 0 0 0 0 0 0 0 0 0 0 0 0 0 0 0 0 0 0.25 0"/>
<feBlend mode="normal" in2="BackgroundImageFix" result="effect1_dropShadow_125_21292"/>
<feBlend mode="normal" in="SourceGraphic" in2="effect1_dropShadow_125_21292" result="shape"/>
</filter>
<clipPath id="clip0_125_21292">
<rect width="24" height="24" fill="white" transform="translate(8.33337 4)"/>
</clipPath>
</defs>
</svg>
