<svg width="41" height="40" viewBox="0 0 41 40" fill="none" xmlns="http://www.w3.org/2000/svg">
<g filter="url(#filter0_d_125_21268)">
<rect x="4.33337" width="32" height="32" rx="16" fill="#F9F1F4"/>
<g clip-path="url(#clip0_125_21268)">
<path d="M20 24C22.1217 24 24.1566 23.1571 25.6569 21.6569C27.1571 20.1566 28 18.1217 28 16C28 13.8783 27.1571 11.8434 25.6569 10.3431C24.1566 8.84285 22.1217 8 20 8C17.8783 8 15.8434 8.84285 14.3431 10.3431C12.8429 11.8434 12 13.8783 12 16C12 18.1217 12.8429 20.1566 14.3431 21.6569C15.8434 23.1571 17.8783 24 20 24ZM20 26C14.477 26 10 21.523 10 16C10 10.477 14.477 6 20 6C25.523 6 30 10.477 30 16C30 21.523 25.523 26 20 26ZM20 20C21.0609 20 22.0783 19.5786 22.8284 18.8284C23.5786 18.0783 24 17.0609 24 16C24 14.9391 23.5786 13.9217 22.8284 13.1716C22.0783 12.4214 21.0609 12 20 12C18.9391 12 17.9217 12.4214 17.1716 13.1716C16.4214 13.9217 16 14.9391 16 16C16 17.0609 16.4214 18.0783 17.1716 18.8284C17.9217 19.5786 18.9391 20 20 20ZM20 22C18.4087 22 16.8826 21.3679 15.7574 20.2426C14.6321 19.1174 14 17.5913 14 16C14 14.4087 14.6321 12.8826 15.7574 11.7574C16.8826 10.6321 18.4087 10 20 10C21.5913 10 23.1174 10.6321 24.2426 11.7574C25.3679 12.8826 26 14.4087 26 16C26 17.5913 25.3679 19.1174 24.2426 20.2426C23.1174 21.3679 21.5913 22 20 22ZM20 18C19.4696 18 18.9609 17.7893 18.5858 17.4142C18.2107 17.0391 18 16.5304 18 16C18 15.4696 18.2107 14.9609 18.5858 14.5858C18.9609 14.2107 19.4696 14 20 14C20.5304 14 21.0391 14.2107 21.4142 14.5858C21.7893 14.9609 22 15.4696 22 16C22 16.5304 21.7893 17.0391 21.4142 17.4142C21.0391 17.7893 20.5304 18 20 18Z" fill="#554579"/>
</g>
</g>
<defs>
<filter id="filter0_d_125_21268" x="0.333374" y="0" width="40" height="40" filterUnits="userSpaceOnUse" color-interpolation-filters="sRGB">
<feFlood flood-opacity="0" result="BackgroundImageFix"/>
<feColorMatrix in="SourceAlpha" type="matrix" values="0 0 0 0 0 0 0 0 0 0 0 0 0 0 0 0 0 0 127 0" result="hardAlpha"/>
<feOffset dy="4"/>
<feGaussianBlur stdDeviation="2"/>
<feComposite in2="hardAlpha" operator="out"/>
<feColorMatrix type="matrix" values="0 0 0 0 0 0 0 0 0 0 0 0 0 0 0 0 0 0 0.25 0"/>
<feBlend mode="normal" in2="BackgroundImageFix" result="effect1_dropShadow_125_21268"/>
<feBlend mode="normal" in="SourceGraphic" in2="effect1_dropShadow_125_21268" result="shape"/>
</filter>
<clipPath id="clip0_125_21268">
<rect width="24" height="24" fill="white" transform="translate(8 4)"/>
</clipPath>
</defs>
</svg>
