<svg width="40" height="40" viewBox="0 0 40 40" fill="none" xmlns="http://www.w3.org/2000/svg">
<rect width="40" height="40" rx="20" fill="#EDEBFA"/>
<g clip-path="url(#clip0_186_982)">
<mask id="mask0_186_982" style="mask-type:luminance" maskUnits="userSpaceOnUse" x="7" y="10" width="27" height="20">
<path d="M33.4 10H7.58179V30H33.4V10Z" fill="white"/>
</mask>
<g mask="url(#mask0_186_982)">
<path d="M29.4379 11.7812C27.7923 11.0261 26.0277 10.4698 24.1827 10.1512C24.1491 10.1451 24.1155 10.1605 24.0982 10.1912C23.8713 10.5948 23.6199 11.1214 23.4439 11.5353C21.4594 11.2382 19.4852 11.2382 17.5414 11.5353C17.3654 11.1122 17.1049 10.5948 16.8769 10.1912C16.8596 10.1615 16.826 10.1461 16.7924 10.1512C14.9484 10.4688 13.1838 11.0251 11.5372 11.7812C11.523 11.7873 11.5107 11.7976 11.5026 11.8109C8.15553 16.8114 7.23861 21.689 7.68842 26.5061C7.69046 26.5297 7.70368 26.5522 7.722 26.5666C9.93033 28.1883 12.0695 29.1729 14.1689 29.8254C14.2025 29.8357 14.2381 29.8234 14.2595 29.7957C14.7561 29.1176 15.1988 28.4025 15.5783 27.6505C15.6007 27.6064 15.5794 27.5542 15.5336 27.5368C14.8314 27.2704 14.1628 26.9456 13.5196 26.5768C13.4687 26.5471 13.4647 26.4744 13.5115 26.4395C13.6468 26.3381 13.7822 26.2326 13.9114 26.126C13.9348 26.1066 13.9674 26.1025 13.9949 26.1148C18.2202 28.0439 22.7946 28.0439 26.9701 26.1148C26.9975 26.1014 27.0301 26.1056 27.0545 26.125C27.1838 26.2316 27.3191 26.3381 27.4555 26.4395C27.5023 26.4744 27.4993 26.5471 27.4484 26.5768C26.8052 26.9528 26.1366 27.2704 25.4334 27.5357C25.3876 27.5532 25.3673 27.6064 25.3897 27.6505C25.7774 28.4014 26.2201 29.1165 26.7075 29.7947C26.7279 29.8234 26.7645 29.8357 26.7981 29.8254C28.9077 29.1729 31.0468 28.1883 33.2551 26.5666C33.2745 26.5522 33.2867 26.5307 33.2887 26.5072C33.8271 20.938 32.3871 16.1004 29.4715 11.8119C29.4643 11.7976 29.4522 11.7873 29.4379 11.7812ZM16.2093 23.573C14.9372 23.573 13.889 22.4051 13.889 20.9708C13.889 19.5365 14.9169 18.3686 16.2093 18.3686C17.5119 18.3686 18.5499 19.5468 18.5296 20.9708C18.5296 22.4051 17.5017 23.573 16.2093 23.573ZM24.7882 23.573C23.5161 23.573 22.4679 22.4051 22.4679 20.9708C22.4679 19.5365 23.4958 18.3686 24.7882 18.3686C26.0908 18.3686 27.1288 19.5468 27.1085 20.9708C27.1085 22.4051 26.0908 23.573 24.7882 23.573Z" fill="#5865F2"/>
</g>
</g>
<defs>
<clipPath id="clip0_186_982">
<rect width="25.8182" height="20" fill="white" transform="translate(7.58179 10)"/>
</clipPath>
</defs>
</svg>
