<svg width="40" height="40" viewBox="0 0 40 40" fill="none" xmlns="http://www.w3.org/2000/svg">
<rect width="40" height="40" rx="20" fill="#E4E6E7"/>
<g clip-path="url(#clip0_235_14055)">
<path fill-rule="evenodd" clip-rule="evenodd" d="M10 19.9982C10 14.4791 14.4758 10 20 10C25.5246 10 30 14.4831 30 20.0018C30 25.5209 25.5242 30 20 30H19.1888V29.9639C14.0475 29.5507 10 25.2445 10 19.9982ZM20.2487 28.3744C24.7614 28.2428 28.3777 24.5424 28.3777 20.0018C28.3777 15.3777 24.6273 11.622 20 11.622C15.3723 11.622 11.6223 15.3745 11.6223 19.9982C11.6223 24.6217 15.3757 28.3744 20 28.3744H20.2487Z" fill="#2F3941"/>
<path fill-rule="evenodd" clip-rule="evenodd" d="M15.9514 12.6719C15.8402 12.6369 15.7249 12.6007 15.6048 12.5599L16.126 11.0239C16.1739 11.0402 16.2601 11.0677 16.3608 11.0998C16.5416 11.1574 16.7691 11.2299 16.9045 11.2788L16.9118 11.2814L16.919 11.2842C16.9561 11.2984 16.9958 11.3134 17.0375 11.3291C17.2473 11.4085 17.5062 11.5064 17.7224 11.6075L17.7321 11.612L17.7749 11.6334C17.8767 11.6809 18.0295 11.7537 18.1567 11.8144C18.2282 11.8484 18.2916 11.8787 18.3334 11.8984L18.3527 11.9075L18.3716 11.9177C18.376 11.92 18.3811 11.9228 18.3869 11.9259C18.4308 11.9494 18.5126 11.9931 18.591 12.0411L18.6126 12.0542L18.6187 12.0585C18.6275 12.0636 18.6396 12.0705 18.6546 12.0789C18.6677 12.0862 18.6803 12.0931 18.6929 12.1C18.6954 12.1014 18.6978 12.1027 18.7003 12.1041C18.7072 12.1079 18.7152 12.1123 18.7222 12.1162L18.7227 12.1165C18.7263 12.1185 18.7355 12.1236 18.7461 12.1298C18.7557 12.1353 18.7704 12.1437 18.7888 12.1543C18.8452 12.1864 18.9364 12.2385 19.021 12.288C19.1082 12.3391 19.2413 12.4177 19.3397 12.4867C19.4452 12.5515 19.5612 12.6319 19.6384 12.6853C19.6523 12.695 19.665 12.7037 19.6761 12.7114C19.7355 12.7475 19.7936 12.7885 19.834 12.8175C19.8919 12.859 19.9549 12.906 20.0123 12.9492C20.0389 12.9691 20.0632 12.9874 20.0861 13.0047C20.1166 13.0277 20.1447 13.049 20.1727 13.0699C20.1958 13.0873 20.2151 13.1015 20.2307 13.1128C20.2384 13.1184 20.2444 13.1227 20.2489 13.1259C20.2527 13.1286 20.2545 13.1298 20.2546 13.1299L20.2757 13.144L20.2961 13.1595C21.1914 13.8414 21.9886 14.6427 22.6691 15.5357L22.6697 15.5365L22.6704 15.5373C23.4226 16.5298 24.0166 17.6315 24.4285 18.8039C25.6557 22.2318 25.2948 26.1919 23.3659 29.3179L21.9852 28.4663C23.6475 25.7723 23.9675 22.3274 22.9003 19.3485L22.8995 19.3461L22.8986 19.3437C22.5431 18.331 22.0297 17.3777 21.378 16.5177C20.7884 15.7442 20.0998 15.0514 19.3293 14.4622C19.2867 14.4326 19.2394 14.3975 19.2008 14.3686C19.1715 14.3467 19.1372 14.3208 19.1032 14.2952C19.0805 14.278 19.0579 14.261 19.0373 14.2455C18.9816 14.2036 18.931 14.166 18.8891 14.136C18.8518 14.1092 18.8362 14.0994 18.8363 14.0992C18.8362 14.0991 18.8364 14.0992 18.8363 14.0992L18.8124 14.0857L18.7842 14.0666C18.7428 14.0385 18.7059 14.0129 18.6721 13.9895C18.5978 13.9382 18.5384 13.897 18.478 13.8612L18.4385 13.8377L18.4019 13.81C18.4042 13.8117 18.404 13.8116 18.4008 13.8094C18.3948 13.8054 18.3781 13.7944 18.3468 13.7749C18.3057 13.7494 18.2552 13.7193 18.2012 13.6876C18.1246 13.6428 18.0549 13.603 17.9997 13.5716C17.974 13.5569 17.9515 13.544 17.9329 13.5333L17.9312 13.5323C17.9283 13.5308 17.9242 13.5284 17.9178 13.5249C17.9159 13.5239 17.9138 13.5227 17.9115 13.5215C17.899 13.5146 17.8823 13.5054 17.8652 13.4959C17.8453 13.4848 17.8211 13.4712 17.7976 13.4574C17.7847 13.4499 17.7607 13.4358 17.7338 13.4183C17.7008 13.3986 17.6654 13.3796 17.6232 13.3569C17.6226 13.3566 17.6219 13.3563 17.6213 13.3559C17.5708 13.332 17.508 13.3021 17.4414 13.2703C17.3159 13.2105 17.1767 13.1441 17.0802 13.0992L17.0697 13.0944L17.0261 13.0726C16.8729 13.0015 16.6896 12.932 16.4842 12.8542C16.4395 12.8372 16.3938 12.8199 16.3472 12.8021C16.2206 12.7567 16.0891 12.7153 15.9514 12.6719ZM17.9329 13.5333C17.9337 13.5338 17.9343 13.5341 17.9343 13.5341L17.9329 13.5333ZM17.9329 13.5333C17.9337 13.5338 17.9343 13.5341 17.9343 13.5341L17.9329 13.5333Z" fill="#2F3941"/>
<path fill-rule="evenodd" clip-rule="evenodd" d="M19.3673 16.5321C21.8155 16.09 24.0747 14.7168 25.6199 12.7622L26.8927 13.768C25.107 16.0268 22.5003 17.6146 19.6554 18.1283C18.2388 18.3837 16.7832 18.3923 15.3626 18.1319C13.9457 17.8793 12.5786 17.3707 11.3421 16.6281L12.1774 15.2377C13.2429 15.8776 14.4238 16.3172 15.6492 16.5354L15.6513 16.5357L15.6534 16.5361C16.875 16.7603 18.1344 16.7543 19.3673 16.5321Z" fill="#2F3941"/>
<path fill-rule="evenodd" clip-rule="evenodd" d="M15.0333 28.2219C16.4183 21.1547 23.6206 17.2516 29.5109 18.8571L29.0842 20.422C24.0841 19.0592 17.8253 22.4103 16.6253 28.5338L15.0333 28.2219Z" fill="#2F3941"/>
</g>
<defs>
<clipPath id="clip0_235_14055">
<rect width="20" height="20" fill="white" transform="translate(10 10)"/>
</clipPath>
</defs>
</svg>
