<svg width="32" height="32" viewBox="0 0 32 32" fill="none" xmlns="http://www.w3.org/2000/svg">
<rect x="0.5" y="0.5" width="31" height="31" rx="15.5" fill="#E3EDFD"/>
<rect x="0.5" y="0.5" width="31" height="31" rx="15.5" stroke="#0E4BA3"/>
<g clip-path="url(#clip0_627_2248)">
<path d="M16.0002 22.6666C12.3182 22.6666 9.3335 19.682 9.3335 16C9.3335 12.318 12.3182 9.33331 16.0002 9.33331C19.6822 9.33331 22.6668 12.318 22.6668 16C22.6668 19.682 19.6822 22.6666 16.0002 22.6666ZM16.0002 21.3333C17.4147 21.3333 18.7712 20.7714 19.7714 19.7712C20.7716 18.771 21.3335 17.4145 21.3335 16C21.3335 14.5855 20.7716 13.2289 19.7714 12.2287C18.7712 11.2285 17.4147 10.6666 16.0002 10.6666C14.5857 10.6666 13.2291 11.2285 12.2289 12.2287C11.2287 13.2289 10.6668 14.5855 10.6668 16C10.6668 17.4145 11.2287 18.771 12.2289 19.7712C13.2291 20.7714 14.5857 21.3333 16.0002 21.3333ZM16.6668 16H19.3335V17.3333H15.3335V12.6666H16.6668V16Z" fill="#0E4BA3"/>
</g>
<defs>
<clipPath id="clip0_627_2248">
<rect width="16" height="16" fill="white" transform="translate(8 8)"/>
</clipPath>
</defs>
</svg>
