<svg width="40" height="40" viewBox="0 0 40 40" fill="none" xmlns="http://www.w3.org/2000/svg">
<rect width="40" height="40" rx="20" fill="#EDEBFA"/>
<g clip-path="url(#clip0_186_949)">
<path d="M19.6667 20.0001C19.6667 18.1779 21.1439 16.7007 22.9661 16.7007C24.7883 16.7007 26.2655 18.1779 26.2655 20.0001C26.2655 21.8223 24.7883 23.2995 22.9661 23.2995C21.1439 23.2995 19.6667 21.8223 19.6667 20.0001Z" fill="#1ABCFE"/>
<path d="M13.0679 26.5987C13.0679 24.7765 14.5451 23.2993 16.3673 23.2993H19.6667V26.5987C19.6667 28.4209 18.1895 29.8981 16.3673 29.8981C14.5451 29.8981 13.0679 28.4209 13.0679 26.5987Z" fill="#0ACF83"/>
<path d="M19.6667 10.1021V16.7008H22.9661C24.7884 16.7008 26.2655 15.2236 26.2655 13.4014C26.2655 11.5792 24.7884 10.1021 22.9661 10.1021H19.6667Z" fill="#FF7262"/>
<path d="M13.0679 13.4014C13.0679 15.2237 14.5451 16.7008 16.3673 16.7008H19.6667V10.1021H16.3673C14.5451 10.1021 13.0679 11.5792 13.0679 13.4014Z" fill="#F24E1E"/>
<path d="M13.0679 20.0001C13.0679 21.8223 14.5451 23.2995 16.3673 23.2995H19.6667V16.7007H16.3673C14.5451 16.7007 13.0679 18.1779 13.0679 20.0001Z" fill="#A259FF"/>
</g>
<defs>
<clipPath id="clip0_186_949">
<rect width="13.3333" height="20" fill="white" transform="translate(13 10)"/>
</clipPath>
</defs>
</svg>
