<svg width="41" height="40" viewBox="0 0 41 40" fill="none" xmlns="http://www.w3.org/2000/svg">
<g filter="url(#filter0_d_125_21304)">
<rect x="4.33337" width="32" height="32" rx="16" fill="#EBD2DD"/>
<g clip-path="url(#clip0_125_21304)">
<path d="M23 9H25C25.5304 9 26.0391 9.21071 26.4142 9.58579C26.7893 9.96086 27 10.4696 27 11V19.17C27.6675 19.4059 28.2301 19.8702 28.5884 20.4808C28.9466 21.0914 29.0775 21.809 28.9578 22.5068C28.8381 23.2046 28.4756 23.8375 27.9344 24.2939C27.3931 24.7502 26.708 25.0005 26 25.0005C25.292 25.0005 24.6069 24.7502 24.0656 24.2939C23.5244 23.8375 23.1619 23.2046 23.0422 22.5068C22.9225 21.809 23.0534 21.0914 23.4116 20.4808C23.7699 19.8702 24.3325 19.4059 25 19.17V11H23V14L18.5 10L23 6V9ZM13 12.83C12.3325 12.5941 11.7699 12.1298 11.4116 11.5192C11.0534 10.9086 10.9225 10.191 11.0422 9.49321C11.1619 8.79545 11.5244 8.16246 12.0656 7.70613C12.6069 7.2498 13.292 6.99951 14 6.99951C14.708 6.99951 15.3931 7.2498 15.9344 7.70613C16.4756 8.16246 16.8381 8.79545 16.9578 9.49321C17.0775 10.191 16.9466 10.9086 16.5884 11.5192C16.2301 12.1298 15.6675 12.5941 15 12.83V19.17C15.6675 19.4059 16.2301 19.8702 16.5884 20.4808C16.9466 21.0914 17.0775 21.809 16.9578 22.5068C16.8381 23.2046 16.4756 23.8375 15.9344 24.2939C15.3931 24.7502 14.708 25.0005 14 25.0005C13.292 25.0005 12.6069 24.7502 12.0656 24.2939C11.5244 23.8375 11.1619 23.2046 11.0422 22.5068C10.9225 21.809 11.0534 21.0914 11.4116 20.4808C11.7699 19.8702 12.3325 19.4059 13 19.17V12.83ZM14 11C14.2652 11 14.5196 10.8946 14.7071 10.7071C14.8946 10.5196 15 10.2652 15 10C15 9.73478 14.8946 9.48043 14.7071 9.29289C14.5196 9.10536 14.2652 9 14 9C13.7348 9 13.4804 9.10536 13.2929 9.29289C13.1054 9.48043 13 9.73478 13 10C13 10.2652 13.1054 10.5196 13.2929 10.7071C13.4804 10.8946 13.7348 11 14 11ZM14 23C14.2652 23 14.5196 22.8946 14.7071 22.7071C14.8946 22.5196 15 22.2652 15 22C15 21.7348 14.8946 21.4804 14.7071 21.2929C14.5196 21.1054 14.2652 21 14 21C13.7348 21 13.4804 21.1054 13.2929 21.2929C13.1054 21.4804 13 21.7348 13 22C13 22.2652 13.1054 22.5196 13.2929 22.7071C13.4804 22.8946 13.7348 23 14 23ZM26 23C26.2652 23 26.5196 22.8946 26.7071 22.7071C26.8946 22.5196 27 22.2652 27 22C27 21.7348 26.8946 21.4804 26.7071 21.2929C26.5196 21.1054 26.2652 21 26 21C25.7348 21 25.4804 21.1054 25.2929 21.2929C25.1054 21.4804 25 21.7348 25 22C25 22.2652 25.1054 22.5196 25.2929 22.7071C25.4804 22.8946 25.7348 23 26 23Z" fill="#9C1E55"/>
</g>
</g>
<defs>
<filter id="filter0_d_125_21304" x="0.333374" y="0" width="40" height="40" filterUnits="userSpaceOnUse" color-interpolation-filters="sRGB">
<feFlood flood-opacity="0" result="BackgroundImageFix"/>
<feColorMatrix in="SourceAlpha" type="matrix" values="0 0 0 0 0 0 0 0 0 0 0 0 0 0 0 0 0 0 127 0" result="hardAlpha"/>
<feOffset dy="4"/>
<feGaussianBlur stdDeviation="2"/>
<feComposite in2="hardAlpha" operator="out"/>
<feColorMatrix type="matrix" values="0 0 0 0 0 0 0 0 0 0 0 0 0 0 0 0 0 0 0.25 0"/>
<feBlend mode="normal" in2="BackgroundImageFix" result="effect1_dropShadow_125_21304"/>
<feBlend mode="normal" in="SourceGraphic" in2="effect1_dropShadow_125_21304" result="shape"/>
</filter>
<clipPath id="clip0_125_21304">
<rect width="24" height="24" fill="white" transform="translate(8 4)"/>
</clipPath>
</defs>
</svg>
