<svg width="40" height="40" viewBox="0 0 40 40" fill="none" xmlns="http://www.w3.org/2000/svg">
<rect width="40" height="40" rx="20" fill="#EDEBFA"/>
<path d="M30 10H10V30H30V10Z" fill="#FF0066"/>
<path d="M18.7222 18.5744C18.8129 18.5731 18.9011 18.545 18.9759 18.4937C19.0506 18.4423 19.1085 18.3701 19.1423 18.2859C19.176 18.2018 19.1842 18.1096 19.1657 18.0208C19.1472 17.9321 19.1029 17.8508 19.0383 17.7871C18.9737 17.7235 18.8918 17.6803 18.8028 17.6631C18.7138 17.6459 18.6217 17.6554 18.538 17.6904C18.4544 17.7254 18.383 17.7843 18.3327 17.8598C18.2825 17.9353 18.2557 18.0239 18.2557 18.1146C18.2559 18.1755 18.2681 18.2357 18.2917 18.2919C18.3153 18.348 18.3498 18.3989 18.3932 18.4416C18.4366 18.4844 18.488 18.5181 18.5444 18.5409C18.6009 18.5637 18.6613 18.5751 18.7222 18.5744Z" fill="white"/>
<path d="M17.7549 21.0363C17.7284 21.1495 17.7145 21.2653 17.7136 21.3816C17.7136 21.7864 17.9331 22.0552 18.3997 22.0552C18.7865 22.0552 19.1005 21.8254 19.3261 21.4542L19.1881 22.0078H19.9561L20.3955 20.2478C20.5053 19.8017 20.7177 19.5704 21.0403 19.5704C21.2941 19.5704 21.4518 19.7281 21.4518 19.9889C21.4531 20.0725 21.4415 20.1558 21.4176 20.236L21.1913 21.0452C21.159 21.1567 21.1428 21.2722 21.1433 21.3883C21.1433 21.7723 21.3696 22.0539 21.8429 22.0539C22.2477 22.0539 22.5702 21.7934 22.7485 21.1691L22.4467 21.0523C22.2957 21.4708 22.1654 21.5464 22.0627 21.5464C21.96 21.5464 21.9046 21.4779 21.9046 21.3406C21.9076 21.2686 21.9191 21.1971 21.9389 21.1278L22.1587 20.339C22.2081 20.1768 22.2335 20.0083 22.2342 19.8388C22.2342 19.2488 21.8774 18.9409 21.4451 18.9409C21.0403 18.9409 20.6288 19.306 20.423 19.6904L20.5737 19.0004H19.4009L19.2361 19.6084H19.7853L19.4473 20.9601C19.1817 21.5502 18.6941 21.5598 18.6329 21.546C18.5325 21.5233 18.4685 21.4852 18.4685 21.354C18.4714 21.2478 18.4875 21.1424 18.5165 21.0401L19.031 18.9988H17.728L17.5635 19.6068H18.1053L17.7549 21.0363Z" fill="white"/>
</svg>
