<svg width="40" height="40" viewBox="0 0 40 40" fill="none" xmlns="http://www.w3.org/2000/svg">
<rect width="40" height="40" rx="20" fill="#E4E6E7"/>
<g clip-path="url(#clip0_235_14050)">
<path d="M28.8647 27.3519C28.9076 27.3523 28.9502 27.344 28.9897 27.3275C29.0292 27.3109 29.0649 27.2865 29.0945 27.2558C29.1241 27.225 29.1471 27.1886 29.1619 27.1487C29.1766 27.1088 29.183 27.0663 29.1805 27.0239C29.1805 26.7913 29.0388 26.6802 28.748 26.6802H28.2782V27.898H28.4549V27.3671H28.6721L28.677 27.3736L29.014 27.898H29.203L28.8404 27.3552L28.8647 27.3519ZM28.6603 27.2299H28.4554V26.8182H28.7151C28.8493 26.8182 29.0023 26.8399 29.0023 27.0138C29.0023 27.2139 28.8475 27.2299 28.6593 27.2299" fill="#2F3941"/>
<path d="M24.2552 25.8258H21.7494V21.9404C21.7494 21.0139 21.7327 19.8212 20.4462 19.8212C19.1411 19.8212 18.9414 20.8306 18.9414 21.8729V25.8256H16.4357V17.8355H18.8412V18.9275H18.8749C19.1156 18.5199 19.4635 18.1846 19.8814 17.9573C20.2994 17.7301 20.7718 17.6193 21.2483 17.6368C23.788 17.6368 24.2562 19.2908 24.2562 21.4426L24.2552 25.8258ZM13.6084 16.7433C13.3208 16.7434 13.0396 16.659 12.8005 16.5008C12.5613 16.3427 12.3749 16.1178 12.2648 15.8548C12.1547 15.5917 12.1258 15.3022 12.1819 15.0229C12.2379 14.7436 12.3764 14.487 12.5797 14.2857C12.783 14.0843 13.0421 13.9471 13.3242 13.8915C13.6062 13.8359 13.8986 13.8643 14.1643 13.9733C14.4301 14.0822 14.6572 14.2667 14.817 14.5034C14.9768 14.7402 15.0622 15.0185 15.0622 15.3033C15.0623 15.4924 15.0247 15.6796 14.9516 15.8543C14.8786 16.029 14.7715 16.1877 14.6365 16.3215C14.5015 16.4552 14.3412 16.5613 14.1648 16.6336C13.9884 16.706 13.7993 16.7433 13.6084 16.7433ZM14.8612 25.8258H12.3529V17.8355H14.8612V25.8258ZM25.5044 11.5597H11.0938C10.7667 11.5561 10.4515 11.6812 10.2175 11.9075C9.98351 12.1338 9.84984 12.4428 9.84585 12.7667V27.0945C9.84971 27.4186 9.9833 27.7278 10.2173 27.9544C10.4513 28.1809 10.7665 28.3062 11.0938 28.3028H25.5044C25.8323 28.3068 26.1484 28.1819 26.3833 27.9553C26.6182 27.7288 26.7527 27.4192 26.7573 27.0945V12.7656C26.7526 12.4411 26.618 12.1317 26.3831 11.9054C26.1482 11.6791 25.8321 11.5544 25.5044 11.5587" fill="#2F3941"/>
<path d="M28.6818 26.1377C28.3769 26.1406 28.0856 26.2629 27.8716 26.4779C27.6575 26.6929 27.5382 26.9831 27.5397 27.2849C27.5412 27.5868 27.6633 27.8758 27.8794 28.0888C28.0955 28.3017 28.388 28.4213 28.6928 28.4213C28.9977 28.4213 29.2902 28.3017 29.5063 28.0888C29.7224 27.8758 29.8445 27.5868 29.846 27.2849C29.8475 26.9831 29.7281 26.6929 29.5141 26.4779C29.3001 26.2629 29.0088 26.1406 28.7039 26.1377H28.6818ZM28.6818 28.2905C28.4818 28.2938 28.2853 28.2383 28.1172 28.1311C27.9491 28.0238 27.8169 27.8696 27.7373 27.6879C27.6577 27.5063 27.6343 27.3053 27.67 27.1105C27.7058 26.9157 27.7991 26.7357 27.9381 26.5934C28.0772 26.451 28.2557 26.3527 28.4512 26.3109C28.6466 26.269 28.8503 26.2855 29.0363 26.3582C29.2223 26.4309 29.3824 26.5566 29.4962 26.7194C29.6101 26.8822 29.6726 27.0748 29.6759 27.2728C29.6759 27.2785 29.6759 27.2839 29.6759 27.2896C29.6815 27.5493 29.5827 27.8006 29.4012 27.9882C29.2197 28.1758 28.9704 28.2844 28.7081 28.29H28.682" fill="#2F3941"/>
</g>
<defs>
<clipPath id="clip0_235_14050">
<rect width="20" height="16.8831" fill="white" transform="translate(9.84615 11.5586)"/>
</clipPath>
</defs>
</svg>
