<svg width="32" height="32" viewBox="0 0 32 32" fill="none" xmlns="http://www.w3.org/2000/svg">
<rect x="0.5" y="0.5" width="31" height="31" rx="15.5" fill="#E3EDFD"/>
<rect x="0.5" y="0.5" width="31" height="31" rx="15.5" stroke="#0E4BA3"/>
<g clip-path="url(#clip0_627_2229)">
<path d="M16 21.9333L19.3 18.6333C19.9526 17.9807 20.397 17.1491 20.577 16.2439C20.7571 15.3387 20.6646 14.4004 20.3114 13.5477C19.9582 12.695 19.36 11.9662 18.5926 11.4534C17.8252 10.9407 16.923 10.667 16 10.667C15.077 10.667 14.1748 10.9407 13.4074 11.4534C12.64 11.9662 12.0418 12.695 11.6886 13.5477C11.3354 14.4004 11.2429 15.3387 11.423 16.2439C11.603 17.1491 12.0474 17.9807 12.7 18.6333L16 21.9333ZM16 23.8187L11.7573 19.576C10.9182 18.7369 10.3468 17.6678 10.1153 16.5039C9.88378 15.34 10.0026 14.1336 10.4567 13.0373C10.9109 11.9409 11.6799 11.0038 12.6666 10.3446C13.6533 9.68527 14.8133 9.33337 16 9.33337C17.1867 9.33337 18.3467 9.68527 19.3334 10.3446C20.3201 11.0038 21.0891 11.9409 21.5433 13.0373C21.9974 14.1336 22.1162 15.34 21.8847 16.5039C21.6532 17.6678 21.0818 18.7369 20.2427 19.576L16 23.8187ZM16 16.6667C16.3536 16.6667 16.6928 16.5262 16.9428 16.2761C17.1929 16.0261 17.3333 15.6869 17.3333 15.3333C17.3333 14.9797 17.1929 14.6406 16.9428 14.3905C16.6928 14.1405 16.3536 14 16 14C15.6464 14 15.3072 14.1405 15.0572 14.3905C14.8071 14.6406 14.6667 14.9797 14.6667 15.3333C14.6667 15.6869 14.8071 16.0261 15.0572 16.2761C15.3072 16.5262 15.6464 16.6667 16 16.6667ZM16 18C15.2928 18 14.6145 17.719 14.1144 17.2189C13.6143 16.7188 13.3333 16.0406 13.3333 15.3333C13.3333 14.6261 13.6143 13.9478 14.1144 13.4477C14.6145 12.9476 15.2928 12.6667 16 12.6667C16.7072 12.6667 17.3855 12.9476 17.8856 13.4477C18.3857 13.9478 18.6667 14.6261 18.6667 15.3333C18.6667 16.0406 18.3857 16.7188 17.8856 17.2189C17.3855 17.719 16.7072 18 16 18Z" fill="#0E4BA3"/>
</g>
<defs>
<clipPath id="clip0_627_2229">
<rect width="16" height="16" fill="white" transform="translate(8 8)"/>
</clipPath>
</defs>
</svg>
