<svg width="32" height="32" viewBox="0 0 32 32" fill="none" xmlns="http://www.w3.org/2000/svg">
<rect x="0.5" y="0.5" width="31" height="31" rx="15.5" fill="#E3EDFD"/>
<rect x="0.5" y="0.5" width="31" height="31" rx="15.5" stroke="#0E4BA3"/>
<g clip-path="url(#clip0_627_2222)">
<path d="M18.1326 14.63C17.8435 14.3561 17.6575 13.9909 17.606 13.596L17.3373 11.5407L15.5173 12.5313C15.1674 12.722 14.7624 12.7863 14.3706 12.7133L12.3333 12.3333L12.7133 14.3707C12.7863 14.7624 12.722 15.1674 12.5313 15.5173L11.5406 17.3373L13.596 17.606C13.9907 17.6577 14.3556 17.8437 14.6293 18.1327L16.0546 19.6373L16.9453 17.766C17.1163 17.4064 17.4058 17.1166 17.7653 16.9453L19.6373 16.0547L18.1326 14.63ZM18.1493 18.3387L16.674 21.4387C16.6461 21.4973 16.6043 21.5482 16.5523 21.5871C16.5003 21.626 16.4396 21.6516 16.3755 21.6618C16.3114 21.6719 16.2458 21.6663 16.1843 21.6455C16.1228 21.6246 16.0673 21.5891 16.0226 21.542L13.6613 19.0493C13.5982 18.9828 13.5142 18.94 13.4233 18.928L10.0186 18.4827C9.95432 18.4742 9.89303 18.4502 9.84004 18.4128C9.78706 18.3753 9.74397 18.3255 9.71451 18.2677C9.68505 18.2099 9.6701 18.1458 9.67093 18.0809C9.67177 18.0161 9.68837 17.9524 9.71932 17.8953L11.3606 14.8793C11.4043 14.7987 11.4189 14.7055 11.402 14.6153L10.7733 11.24C10.7614 11.1761 10.7652 11.1103 10.7844 11.0482C10.8036 10.9861 10.8377 10.9296 10.8837 10.8837C10.9296 10.8377 10.9861 10.8037 11.0482 10.7844C11.1103 10.7652 11.1761 10.7614 11.24 10.7733L14.6153 11.402C14.7055 11.4189 14.7987 11.4043 14.8793 11.3607L17.8953 9.71933C17.9524 9.68838 18.0161 9.67179 18.0811 9.67099C18.146 9.67019 18.2101 9.6852 18.2679 9.71474C18.3258 9.74427 18.3755 9.78744 18.4129 9.84051C18.4503 9.89357 18.4743 9.95495 18.4826 10.0193L18.928 13.4233C18.94 13.5142 18.9828 13.5982 19.0493 13.6613L21.542 16.0227C21.5891 16.0673 21.6246 16.1228 21.6455 16.1843C21.6663 16.2458 21.6719 16.3114 21.6617 16.3755C21.6516 16.4396 21.6259 16.5003 21.5871 16.5523C21.5482 16.6043 21.4973 16.6461 21.4387 16.674L18.3386 18.1493C18.2557 18.1888 18.1888 18.2557 18.1493 18.3387ZM18.6806 19.6233L19.6233 18.6807L22.452 21.5087L21.5086 22.452L18.6806 19.6233Z" fill="#0E4BA3"/>
</g>
<defs>
<clipPath id="clip0_627_2222">
<rect width="16" height="16" fill="white" transform="translate(8 8)"/>
</clipPath>
</defs>
</svg>
