<svg width="77" height="77" viewBox="0 0 77 77" fill="none" xmlns="http://www.w3.org/2000/svg">
<path fill-rule="evenodd" clip-rule="evenodd" d="M17.8713 7.67689C31.6956 7.66926 45.5196 7.67696 59.3435 7.69999C62.4414 7.98205 64.9747 9.31415 66.9434 11.6963C68.3704 13.5018 69.1558 15.5603 69.2996 17.8717C69.31 31.6188 69.31 45.3658 69.2996 59.1129C69.0648 62.3731 67.6813 65.0193 65.1493 67.0516C63.3683 68.4173 61.3509 69.1666 59.0971 69.3C45.3553 69.3103 31.6132 69.3103 17.8713 69.3C14.6743 69.0761 12.0589 67.7387 10.025 65.2883C8.59812 63.4828 7.81272 61.4243 7.66884 59.1129C7.65856 45.3658 7.65856 31.6188 7.66884 17.8717C7.90373 14.6115 9.28716 11.9653 11.8191 9.93299C13.6031 8.56902 15.6205 7.81699 17.8713 7.67689Z" fill="#FEB800"/>
<path fill-rule="evenodd" clip-rule="evenodd" d="M20.4893 19.1653C32.9351 19.1499 45.3834 19.1448 57.8343 19.1499C57.8369 31.5982 57.8343 44.0466 57.8266 56.4949C53.9715 52.6398 50.1162 48.7846 46.2612 44.9295C46.2535 40.2479 46.2508 35.5663 46.2535 30.8847C41.5719 30.8873 36.8903 30.8847 32.2087 30.877C28.3043 26.97 24.3978 23.0661 20.4893 19.1653Z" fill="black"/>
<path fill-rule="evenodd" clip-rule="evenodd" d="M19.1807 20.7053C23.0764 24.5933 26.97 28.4843 30.8616 32.3785C30.8693 37.0088 30.8719 41.639 30.8693 46.2693C35.4996 46.2667 40.1297 46.2693 44.7601 46.277C48.5997 50.1167 52.4396 53.9565 56.2793 57.7962C43.9131 57.8039 31.5469 57.8065 19.1807 57.8039C19.1807 45.4377 19.1807 33.0715 19.1807 20.7053Z" fill="black"/>
</svg>
