<svg width="32" height="32" viewBox="0 0 32 32" fill="none" xmlns="http://www.w3.org/2000/svg">
<rect x="0.5" y="0.5" width="31" height="31" rx="15.5" fill="#E3EDFD"/>
<rect x="0.5" y="0.5" width="31" height="31" rx="15.5" stroke="#0E4BA3"/>
<g clip-path="url(#clip0_627_2216)">
<path d="M19.3333 9.33333H21.3333C21.5101 9.33333 21.6797 9.40357 21.8047 9.5286C21.9298 9.65362 22 9.82319 22 10V22C22 22.1768 21.9298 22.3464 21.8047 22.4714C21.6797 22.5964 21.5101 22.6667 21.3333 22.6667H10.6667C10.4899 22.6667 10.3203 22.5964 10.1953 22.4714C10.0702 22.3464 10 22.1768 10 22V10C10 9.82319 10.0702 9.65362 10.1953 9.5286C10.3203 9.40357 10.4899 9.33333 10.6667 9.33333H12.6667V8H14V9.33333H18V8H19.3333V9.33333ZM19.3333 10.6667V12H18V10.6667H14V12H12.6667V10.6667H11.3333V21.3333H20.6667V10.6667H19.3333ZM12.6667 13.3333H19.3333V14.6667H12.6667V13.3333ZM12.6667 16H19.3333V17.3333H12.6667V16Z" fill="#0E4BA3"/>
</g>
<defs>
<clipPath id="clip0_627_2216">
<rect width="16" height="16" fill="white" transform="translate(8 8)"/>
</clipPath>
</defs>
</svg>
