<svg width="40" height="40" viewBox="0 0 40 40" fill="none" xmlns="http://www.w3.org/2000/svg">
<rect width="40" height="40" rx="20" fill="#EDEBFA"/>
<g clip-path="url(#clip0_186_1006)">
<path fill-rule="evenodd" clip-rule="evenodd" d="M20.8486 26.464L20.9002 29.6285C20.4279 29.6287 19.9741 29.445 19.635 29.1162L19.388 28.822L13.3847 21.6833L11.3428 19.253C11.3374 19.2501 11.3331 19.2456 11.3305 19.2401L11.2983 19.2027L11.2918 19.1943C11.2519 19.1416 11.2199 19.0834 11.197 19.0214C11.1664 18.9454 11.1496 18.8646 11.1473 18.7827V18.7337C11.1473 18.7182 11.1486 18.702 11.1518 18.6866C11.1659 18.5276 11.2332 18.3781 11.3428 18.262C11.4738 18.1201 11.6641 18.0298 11.8731 18.0298H13.8892L20.848 26.4653L20.8492 26.464H20.8486Z" fill="#FCD1CA"/>
<path fill-rule="evenodd" clip-rule="evenodd" d="M20.8473 22.6692V26.5912L11.3286 15.2325C11.2714 15.1684 11.2264 15.0946 11.1957 15.0144C11.1656 14.9376 11.149 14.8562 11.1467 14.7738V14.7254C11.1515 14.55 11.2212 14.3827 11.3422 14.2557C11.4725 14.1118 11.6628 14.0234 11.8725 14.0234H13.6776L20.8473 22.6692Z" fill="#FF9D8D"/>
<path fill-rule="evenodd" clip-rule="evenodd" d="M11.8686 10.2277C11.7694 10.2272 11.6711 10.2475 11.5802 10.2872C11.4893 10.327 11.4078 10.3854 11.3409 10.4587C11.2247 10.5806 11.1525 10.7458 11.1473 10.9258V10.9735C11.1492 11.0593 11.166 11.1393 11.1963 11.2122C11.197 11.2193 11.2002 11.2251 11.2028 11.2316C11.2343 11.3075 11.2793 11.377 11.3357 11.4367L11.346 11.4484L20.8473 22.669V29.6284C21.3169 29.6294 21.7683 29.4469 22.1054 29.12C22.1073 29.12 22.1073 29.12 22.1073 29.1187L30.3654 19.3148C30.3757 19.3045 30.3847 19.2929 30.3938 19.2813C30.4376 19.2271 30.4725 19.1658 30.4983 19.0987C30.5305 19.0187 30.5473 18.9309 30.5473 18.8374V10.9484C30.5481 10.7655 30.4783 10.5894 30.3525 10.4567C30.2852 10.3838 30.2035 10.3256 30.1125 10.2861C30.0215 10.2465 29.9233 10.2264 29.8241 10.2271H11.8692L11.8686 10.2277Z" fill="#FF6661"/>
</g>
<defs>
<clipPath id="clip0_186_1006">
<rect width="20" height="20" fill="white" transform="translate(11 10)"/>
</clipPath>
</defs>
</svg>
