<svg width="40" height="40" viewBox="0 0 40 40" fill="none" xmlns="http://www.w3.org/2000/svg">
<g filter="url(#filter0_d_125_21256)">
<rect x="4" width="32" height="32" rx="16" fill="#F1E9E2"/>
<g clip-path="url(#clip0_125_21256)">
<path d="M20 26C14.477 26 10 21.523 10 16C10 10.477 14.477 6 20 6C25.523 6 30 10.477 30 16C30 21.523 25.523 26 20 26ZM20 24C22.1217 24 24.1566 23.1571 25.6569 21.6569C27.1571 20.1566 28 18.1217 28 16C28 13.8783 27.1571 11.8434 25.6569 10.3431C24.1566 8.84285 22.1217 8 20 8C17.8783 8 15.8434 8.84285 14.3431 10.3431C12.8429 11.8434 12 13.8783 12 16C12 18.1217 12.8429 20.1566 14.3431 21.6569C15.8434 23.1571 17.8783 24 20 24ZM15 15.5L24 12L20.5 21.002L19 17L15 15.5Z" fill="#B98F6D"/>
</g>
</g>
<defs>
<filter id="filter0_d_125_21256" x="0" y="0" width="40" height="40" filterUnits="userSpaceOnUse" color-interpolation-filters="sRGB">
<feFlood flood-opacity="0" result="BackgroundImageFix"/>
<feColorMatrix in="SourceAlpha" type="matrix" values="0 0 0 0 0 0 0 0 0 0 0 0 0 0 0 0 0 0 127 0" result="hardAlpha"/>
<feOffset dy="4"/>
<feGaussianBlur stdDeviation="2"/>
<feComposite in2="hardAlpha" operator="out"/>
<feColorMatrix type="matrix" values="0 0 0 0 0 0 0 0 0 0 0 0 0 0 0 0 0 0 0.25 0"/>
<feBlend mode="normal" in2="BackgroundImageFix" result="effect1_dropShadow_125_21256"/>
<feBlend mode="normal" in="SourceGraphic" in2="effect1_dropShadow_125_21256" result="shape"/>
</filter>
<clipPath id="clip0_125_21256">
<rect width="24" height="24" fill="white" transform="translate(8 4)"/>
</clipPath>
</defs>
</svg>
