<svg width="32" height="32" viewBox="0 0 32 32" fill="none" xmlns="http://www.w3.org/2000/svg">
<g clip-path="url(#clip0_627_2241)">
<rect width="32" height="32" rx="16" fill="#E3EDFD"/>
<rect width="32" height="32" rx="16" fill="#D9E7FC"/>
<g clip-path="url(#clip1_627_2241)">
<path d="M11.3332 21.3333H20.6665V22.6666H11.3332V21.3333ZM15.9998 20C14.5853 20 13.2288 19.4381 12.2286 18.4379C11.2284 17.4377 10.6665 16.0811 10.6665 14.6666C10.6665 13.2522 11.2284 11.8956 12.2286 10.8954C13.2288 9.89522 14.5853 9.33331 15.9998 9.33331C17.4143 9.33331 18.7709 9.89522 19.7711 10.8954C20.7713 11.8956 21.3332 13.2522 21.3332 14.6666C21.3332 16.0811 20.7713 17.4377 19.7711 18.4379C18.7709 19.4381 17.4143 20 15.9998 20ZM15.9998 18.6666C17.0607 18.6666 18.0781 18.2452 18.8283 17.4951C19.5784 16.7449 19.9998 15.7275 19.9998 14.6666C19.9998 13.6058 19.5784 12.5884 18.8283 11.8382C18.0781 11.0881 17.0607 10.6666 15.9998 10.6666C14.939 10.6666 13.9216 11.0881 13.1714 11.8382C12.4213 12.5884 11.9998 13.6058 11.9998 14.6666C11.9998 15.7275 12.4213 16.7449 13.1714 17.4951C13.9216 18.2452 14.939 18.6666 15.9998 18.6666Z" fill="#0E4BA3"/>
</g>
</g>
<rect x="0.5" y="0.5" width="31" height="31" rx="15.5" stroke="#0E4BA3"/>
<defs>
<clipPath id="clip0_627_2241">
<rect width="32" height="32" rx="16" fill="white"/>
</clipPath>
<clipPath id="clip1_627_2241">
<rect width="16" height="16" fill="white" transform="translate(8 8)"/>
</clipPath>
</defs>
</svg>
