<svg width="40" height="40" viewBox="0 0 40 40" fill="none" xmlns="http://www.w3.org/2000/svg">
<rect width="40" height="40" rx="20" fill="#EDEBFA"/>
<g clip-path="url(#clip0_186_972)">
<path d="M29.2 13.8786L22.6864 10.1286C22.6864 10.1286 21.656 9.52197 20 9.52197C18.2888 9.52197 17.2952 10.147 17.2952 10.147L11.26 13.5845L20.4416 18.8602V29.522L26.4952 26.0661C26.4952 26.0661 27.5808 25.4779 28.3904 24.0624C29.108 22.8124 29.2 21.6176 29.2 21.6176V13.8786ZM19.3744 15.6065C19.3744 15.6065 20.7176 15.3676 21.8584 16.0109C22.9992 16.6727 23.68 17.0587 23.68 17.0587C23.68 17.0587 23.68 17.9779 23.68 19.3381C23.68 20.4411 22.76 21.5624 22.76 21.5624V17.5551L19.3744 15.6065ZM24.7104 24.4117L22.7416 25.533V24.4668L24.2688 23.5845C25.7224 22.5367 25.9616 20.9926 25.9616 20.4595V15.6984L21.8032 13.3271C21.8032 13.3271 21.1592 12.9043 20.0184 12.9043C18.8776 12.9043 18.252 13.2904 18.252 13.2904L16.78 14.1359L15.86 13.6029L17.884 12.4448C17.884 12.4448 18.6752 12.0036 20 12.0036C21.2144 12.0036 22.1712 12.4815 22.1712 12.4815L26.8816 15.2021V20.3859C26.9184 21.1764 26.5504 23.1249 24.7104 24.4117Z" fill="#005F9E"/>
<path d="M10.8 17.0406L17.24 20.7355V21.8384L13.5784 19.7428L11.26 21.048L17.2216 24.4855V25.5516L10.8368 21.8752C10.8552 22.298 11.2416 23.6399 11.996 24.6509C12.7504 25.6987 13.6152 26.1399 13.6152 26.1399L19.5216 29.5406V19.3936L10.8 14.3936V17.0406Z" fill="#005F9E"/>
</g>
<defs>
<clipPath id="clip0_186_972">
<rect width="18.4" height="20" fill="white" transform="translate(10.8 9.52197)"/>
</clipPath>
</defs>
</svg>
