<svg width="40" height="40" viewBox="0 0 40 40" fill="none" xmlns="http://www.w3.org/2000/svg">
<rect width="40" height="40" rx="20" fill="#EDEBFA"/>
<g clip-path="url(#clip0_186_957)">
<path d="M19.941 25.9508C16.6328 25.9508 15.1213 24.2656 15.1213 23.0295C15.1209 22.7346 15.2419 22.4526 15.4559 22.2498C15.6699 22.0469 15.958 21.9412 16.2525 21.9574C17.6689 21.9574 17.2984 24.082 19.941 24.082C21.2918 24.082 22.0852 23.2689 22.0852 22.5049C22.0852 22.0459 21.823 21.5213 20.9312 21.3115L17.9803 20.5672C15.6098 19.9639 15.1967 18.6459 15.1967 17.423C15.1967 14.8853 17.518 13.9672 19.7279 13.9672C21.7639 13.9672 24.1836 15.0918 24.1836 16.6131C24.1836 17.2689 23.6361 17.6197 23 17.6197C21.7902 17.6197 21.9934 15.9213 19.5607 15.9213C18.3508 15.9213 17.7148 16.4885 17.7148 17.282C17.7148 18.0754 18.6557 18.3443 19.482 18.5246L21.659 19.0164C24.0459 19.5541 24.682 20.9541 24.682 22.2951C24.682 24.3574 23.0852 25.9508 19.9377 25.9508M29.0754 21.5869C29.1699 21.0456 29.2171 20.4971 29.2164 19.9476C29.228 17.1873 28.0151 14.5639 25.9048 12.7846C23.7945 11.0053 21.0039 10.2533 18.2852 10.7312C17.4496 10.2501 16.5019 9.99786 15.5377 10C13.5586 10.0121 11.7343 11.0728 10.7447 12.7869C9.75512 14.5009 9.74872 16.6112 10.7279 18.3312C10.1815 21.3332 11.1386 24.4127 13.2903 26.5762C15.4421 28.7398 18.5163 29.7136 21.5213 29.1836C22.3559 29.6643 23.3025 29.9165 24.2656 29.9148C26.2437 29.902 28.0669 28.8418 29.0563 27.1288C30.0456 25.4158 30.0529 23.3067 29.0754 21.5869Z" fill="#0078D7"/>
</g>
<defs>
<clipPath id="clip0_186_957">
<rect width="20" height="20" fill="white" transform="translate(10 10)"/>
</clipPath>
</defs>
</svg>
