<svg width="40" height="40" viewBox="0 0 40 40" fill="none" xmlns="http://www.w3.org/2000/svg">
<rect width="40" height="40" rx="20" fill="#EDEBFA"/>
<g clip-path="url(#clip0_186_989)">
<path d="M25.1235 17.5H30.6649C31.1641 17.5 31.6134 17.95 31.6134 18.45V23.5C31.6134 25.45 30.0658 27 28.1188 27C26.1718 27 24.6242 25.45 24.6242 23.5V18C24.6242 17.7 24.8239 17.5 25.1235 17.5Z" fill="#5059C9"/>
<path d="M28.8677 16.5C30.1084 16.5 31.1142 15.4926 31.1142 14.25C31.1142 13.0074 30.1084 12 28.8677 12C27.627 12 26.6212 13.0074 26.6212 14.25C26.6212 15.4926 27.627 16.5 28.8677 16.5Z" fill="#5059C9"/>
<path d="M21.8785 16.5C23.6706 16.5 25.1235 15.0449 25.1235 13.25C25.1235 11.4551 23.6706 10 21.8785 10C20.0864 10 18.6335 11.4551 18.6335 13.25C18.6335 15.0449 20.0864 16.5 21.8785 16.5Z" fill="#7B83EB"/>
<path d="M26.2218 17.5H17.036C16.5368 17.5 16.0875 17.95 16.1374 18.45V24.2C16.0875 27.3 18.5337 29.9 21.6289 29.95C24.7241 29.85 27.1703 27.3 27.1204 24.2V18.45C27.1204 17.95 26.721 17.5 26.2218 17.5Z" fill="#7B83EB"/>
<path opacity="0.1" d="M22.1281 17.5V25.6C22.1281 25.95 21.8785 26.3 21.579 26.45C21.4292 26.5 21.3294 26.5 21.2295 26.5H16.5867C16.5368 26.35 16.4869 26.15 16.387 26C16.1873 25.45 16.1374 24.85 16.1374 24.25V18.45C16.1374 17.95 16.5368 17.5 17.036 17.5H22.1281Z" fill="black"/>
<path opacity="0.2" d="M21.6289 17.5V26.1C21.6289 26.2 21.6289 26.35 21.579 26.45C21.4292 26.8 21.1297 27 20.7303 27H16.8363C16.7365 26.85 16.6866 26.65 16.5867 26.5C16.4869 26.35 16.4869 26.15 16.387 26C16.1873 25.45 16.1374 24.85 16.1374 24.25V18.45C16.1374 17.95 16.5368 17.5 17.036 17.5H21.6289Z" fill="black"/>
<path opacity="0.2" d="M21.6289 17.5V25.1C21.6289 25.6 21.2295 26 20.7303 26H16.437C16.2373 25.45 16.1873 24.85 16.1873 24.25V18.45C16.1873 17.95 16.5867 17.5 17.086 17.5H21.6289Z" fill="black"/>
<path opacity="0.2" d="M21.1297 17.5V25.1C21.1297 25.6 20.7303 26 20.2311 26H16.437C16.2373 25.45 16.1873 24.85 16.1873 24.25V18.45C16.1873 17.95 16.5867 17.5 17.086 17.5H21.1297Z" fill="black"/>
<path opacity="0.1" d="M22.1281 14.9V16.5C22.0283 16.5 21.9784 16.5 21.8785 16.5C21.7787 16.5 21.7287 16.5 21.6289 16.5C21.4791 16.5 21.2794 16.45 21.1297 16.4C20.1312 16.15 19.2825 15.45 18.8832 14.5C18.8332 14.35 18.7833 14.15 18.7334 14H21.2295C21.7287 14 22.1281 14.4 22.1281 14.9Z" fill="black"/>
<path opacity="0.2" d="M21.6289 15.4V16.5C21.4791 16.5 21.2795 16.45 21.1297 16.4C20.1312 16.15 19.2826 15.45 18.8832 14.5H20.7303C21.2295 14.5 21.6289 14.9 21.6289 15.4Z" fill="black"/>
<path opacity="0.2" d="M21.6289 15.4V16.5C21.4791 16.5 21.2795 16.45 21.1297 16.4C20.1312 16.15 19.2826 15.45 18.8832 14.5H20.7303C21.2295 14.5 21.6289 14.9 21.6289 15.4Z" fill="black"/>
<path opacity="0.2" d="M21.1297 15.4V16.4C20.1312 16.15 19.2826 15.45 18.8832 14.5H20.2311C20.7303 14.5 21.1297 14.9 21.1297 15.4Z" fill="black"/>
<path d="M11.0453 14.5H20.1811C20.6804 14.5 21.0798 14.9 21.0798 15.4V24.55C21.0798 25.05 20.6804 25.45 20.1811 25.45H11.0453C10.5461 25.45 10.1467 25.05 10.1467 24.55V15.4C10.1467 14.9 10.5461 14.5 11.0453 14.5Z" fill="url(#paint0_linear_186_989)"/>
<path d="M18.0345 18H16.1873V23H15.0391V18H13.2419V17H18.0345V18Z" fill="white"/>
</g>
<defs>
<linearGradient id="paint0_linear_186_989" x1="12.0547" y1="13.7838" x2="19.2384" y2="26.2065" gradientUnits="userSpaceOnUse">
<stop stop-color="#5A62C3"/>
<stop offset="0.5" stop-color="#4D55BD"/>
<stop offset="1" stop-color="#3940AB"/>
</linearGradient>
<clipPath id="clip0_186_989">
<rect width="21.4667" height="20" fill="white" transform="translate(10.1467 10)"/>
</clipPath>
</defs>
</svg>
