<svg width="41" height="40" viewBox="0 0 41 40" fill="none" xmlns="http://www.w3.org/2000/svg">
<g filter="url(#filter0_d_125_21244)">
<rect x="4.66663" width="32" height="32" rx="16" fill="#F5DDDA"/>
<g clip-path="url(#clip0_125_21244)">
<path d="M13 26C13 23.8783 13.8429 21.8434 15.3431 20.3431C16.8434 18.8429 18.8783 18 21 18C23.1217 18 25.1566 18.8429 26.6569 20.3431C28.1571 21.8434 29 23.8783 29 26H27C27 24.4087 26.3679 22.8826 25.2426 21.7574C24.1174 20.6321 22.5913 20 21 20C19.4087 20 17.8826 20.6321 16.7574 21.7574C15.6321 22.8826 15 24.4087 15 26H13ZM21 17C17.685 17 15 14.315 15 11C15 7.685 17.685 5 21 5C24.315 5 27 7.685 27 11C27 14.315 24.315 17 21 17ZM21 15C23.21 15 25 13.21 25 11C25 8.79 23.21 7 21 7C18.79 7 17 8.79 17 11C17 13.21 18.79 15 21 15Z" fill="#CC5648"/>
</g>
</g>
<defs>
<filter id="filter0_d_125_21244" x="0.666626" y="0" width="40" height="40" filterUnits="userSpaceOnUse" color-interpolation-filters="sRGB">
<feFlood flood-opacity="0" result="BackgroundImageFix"/>
<feColorMatrix in="SourceAlpha" type="matrix" values="0 0 0 0 0 0 0 0 0 0 0 0 0 0 0 0 0 0 127 0" result="hardAlpha"/>
<feOffset dy="4"/>
<feGaussianBlur stdDeviation="2"/>
<feComposite in2="hardAlpha" operator="out"/>
<feColorMatrix type="matrix" values="0 0 0 0 0 0 0 0 0 0 0 0 0 0 0 0 0 0 0.25 0"/>
<feBlend mode="normal" in2="BackgroundImageFix" result="effect1_dropShadow_125_21244"/>
<feBlend mode="normal" in="SourceGraphic" in2="effect1_dropShadow_125_21244" result="shape"/>
</filter>
<clipPath id="clip0_125_21244">
<rect width="24" height="24" fill="white" transform="translate(9 4)"/>
</clipPath>
</defs>
</svg>
