<svg width="40" height="40" viewBox="0 0 40 40" fill="none" xmlns="http://www.w3.org/2000/svg">
<rect width="40" height="40" rx="20" fill="#EDEBFA"/>
<g clip-path="url(#clip0_186_1023)">
<path fill-rule="evenodd" clip-rule="evenodd" d="M11.3533 23.7852L10.0454 24.2631L9.97542 28.1535L14.5025 26.5002C12.9496 25.9785 11.8158 25.0606 11.3533 23.7852Z" fill="#FDBD39"/>
<path fill-rule="evenodd" clip-rule="evenodd" d="M12.0375 19.6699L7.5 21.3274L10.0458 24.2628L11.3533 23.7849C10.8921 22.5133 11.1763 21.0762 12.0375 19.6699Z" fill="#F69833"/>
<path fill-rule="evenodd" clip-rule="evenodd" d="M19.6742 14.0558C13.8954 16.1666 10.17 20.5225 11.3533 23.785L32.2787 16.1408C31.0954 12.8783 25.4525 11.945 19.6742 14.0558Z" fill="#FECF33"/>
<path fill-rule="evenodd" clip-rule="evenodd" d="M23.9583 25.8703C29.7367 23.759 33.4687 19.4228 32.2792 16.1411L11.3529 23.7853C12.5429 27.0669 18.1796 27.9811 23.9583 25.8703Z" fill="#EE6723"/>
<path fill-rule="evenodd" clip-rule="evenodd" d="M32.2792 16.1411L11.3529 23.7853C11.7625 24.9153 13.3254 25.4719 15.5175 25.4719C17.655 25.4719 20.3912 24.9432 23.2437 23.9011C29.0221 21.7903 33.0875 18.3724 32.2783 16.1411" fill="#F69833"/>
<path fill-rule="evenodd" clip-rule="evenodd" d="M28.1142 14.4541C25.9767 14.4541 23.2404 14.9829 20.3879 16.0249C14.6096 18.1358 10.5442 21.5533 11.3533 23.7849L32.2788 16.1408C31.8692 15.0108 30.3067 14.4541 28.1142 14.4541Z" fill="#FDBD39"/>
<path fill-rule="evenodd" clip-rule="evenodd" d="M26.9584 28.3597C26.3425 28.3597 25.4346 27.8034 24.2584 26.7068C22.868 25.4093 21.2746 23.5088 19.7721 21.3551C18.27 19.2022 17.0355 17.0493 16.2963 15.2934C15.4913 13.3801 15.3763 12.2038 15.955 11.7968C16.0821 11.7076 16.235 11.6626 16.41 11.6626C16.8809 11.6626 17.7984 12.013 19.4946 13.6834L19.5321 13.7197L19.5267 13.7718C19.515 13.8918 19.5046 14.013 19.495 14.1318L19.4763 14.3676L19.3096 14.2001C17.4817 12.3584 16.6771 12.1597 16.4159 12.1597C16.3413 12.1597 16.2821 12.1747 16.2396 12.2047C15.9884 12.3809 15.9721 13.2451 16.753 15.0997C17.4792 16.8243 18.6955 18.9443 20.178 21.0697C21.6613 23.1955 23.23 25.068 24.5963 26.3422C26.0692 27.7163 26.733 27.8647 26.9505 27.8647C27.0255 27.8647 27.0859 27.8488 27.1313 27.8168C27.3959 27.6309 27.3963 26.7051 26.5255 24.7084L26.4855 24.6172L26.573 24.5693C26.6605 24.5213 26.7455 24.4743 26.8246 24.4293L26.9296 24.3697L26.978 24.4801C27.595 25.8947 28.1721 27.6926 27.4155 28.2247C27.288 28.3143 27.1342 28.3597 26.9584 28.3597Z" fill="#EE6723"/>
<path fill-rule="evenodd" clip-rule="evenodd" d="M24.0983 25.8106L24.09 25.9189C23.9438 27.7268 23.5588 29.8998 22.5558 29.9881C22.5358 29.9898 22.515 29.9906 22.4942 29.9906C21.8125 29.9906 21.1679 29.0143 20.5783 27.0893C20.02 25.2677 19.5867 22.8227 19.3588 20.2031C19.1304 17.5848 19.1338 15.1006 19.3683 13.2093C19.6238 11.1481 20.1104 10.0718 20.8146 10.0098C20.8354 10.0081 20.8571 10.0068 20.8783 10.0068C21.3725 10.0068 22.1175 10.5668 22.88 13.1735L22.3821 13.2693C22.1275 12.3985 21.85 11.6902 21.5746 11.2027C21.3196 10.7527 21.0721 10.5048 20.8771 10.5048C20.8704 10.5048 20.8642 10.5048 20.8575 10.5056C20.5525 10.5323 20.1079 11.2727 19.8604 13.2706C19.63 15.1281 19.6271 17.5748 19.8521 20.1598C20.0779 22.7452 20.5038 25.1543 21.0521 26.9431C21.2975 27.7439 21.5667 28.4043 21.8308 28.8523C22.0742 29.2656 22.3096 29.4931 22.4938 29.4931C22.5 29.4931 22.5062 29.4931 22.5129 29.4923C22.8046 29.4668 23.355 28.6964 23.5867 25.986L24.0983 25.8106Z" fill="#EE6723"/>
</g>
<defs>
<clipPath id="clip0_186_1023">
<rect width="25" height="20" fill="white" transform="translate(7.5 10)"/>
</clipPath>
</defs>
</svg>
